<svg width="348" height="59" viewBox="0 0 348 59" fill="none" xmlns="http://www.w3.org/2000/svg">
<path d="M84.0371 13.3867C85.7871 13.3594 87.2227 13.6738 88.3438 14.3301C89.4922 14.9863 90.4219 15.7656 91.1328 16.668C91.8438 17.5703 92.3906 18.4863 92.7734 19.416C93.1562 20.3184 93.457 21.0293 93.6758 21.5488C93.7305 21.6855 93.8398 21.8633 94.0039 22.082C94.1406 22.2734 94.332 22.5059 94.5781 22.7793C94.8516 23.0254 95.1934 23.3125 95.6035 23.6406C94.7559 23.668 94.0039 23.6953 93.3477 23.7227C92.6914 23.7227 92.1309 23.7363 91.666 23.7637C91.1465 23.791 90.6816 23.8184 90.2715 23.8457C89.8613 23.873 89.3555 23.9141 88.7539 23.9688C88.207 24.0234 87.5371 24.0781 86.7441 24.1328C85.9512 24.1875 84.9805 24.2695 83.832 24.3789C84.5156 23.5586 85.0488 22.834 85.4316 22.2051C85.8418 21.5488 86.1426 20.9746 86.334 20.4824C86.5527 19.9629 86.6758 19.5117 86.7031 19.1289C86.7578 18.7461 86.7441 18.418 86.6621 18.1445C86.498 17.5156 86.0742 17.0645 85.3906 16.791C83.4219 16.2441 81.6992 16.6816 80.2227 18.1035C78.7734 19.498 77.7344 21.7949 77.1055 24.9941C76.8047 26.5801 76.5176 28.2344 76.2441 29.957C75.998 31.6523 75.9023 33.2109 75.957 34.6328C76.0117 36.0273 76.2852 37.1621 76.7773 38.0371C77.2695 38.9121 78.1172 39.3223 79.3203 39.2676C80.4961 39.2129 81.4941 39.0215 82.3145 38.6934C83.1348 38.3379 83.791 37.9277 84.2832 37.4629C84.7754 36.9707 85.1172 36.4512 85.3086 35.9043C85.5273 35.3301 85.6094 34.7969 85.5547 34.3047C85.4453 33.9219 85.1582 33.5117 84.6934 33.0742C84.2832 32.6914 83.668 32.2676 82.8477 31.8027C82.0273 31.3105 80.8516 30.8047 79.3203 30.2852C80.7695 30.2031 81.959 30.1484 82.8887 30.1211C83.8457 30.0664 84.5977 30.0117 85.1445 29.957C85.8008 29.9023 86.3066 29.8613 86.6621 29.834C86.9902 29.8066 87.4688 29.7793 88.0977 29.752C88.6445 29.7246 89.3418 29.7109 90.1895 29.7109C91.0645 29.7109 92.1582 29.6973 93.4707 29.6699C92.9785 30.1621 92.5957 30.6133 92.3223 31.0234C92.1855 31.2422 92.0625 31.4336 91.9531 31.5977C91.8438 31.8711 91.8027 32.4316 91.8301 33.2793C91.8301 33.9902 91.8848 35.043 91.9941 36.4375C92.1035 37.8047 92.3086 39.6777 92.6094 42.0566L87.1543 42.7949L87.4004 37.2578C86.7715 38.7617 85.9785 39.8828 85.0215 40.6211C84.0918 41.3594 83.2031 41.8789 82.3555 42.1797C81.3438 42.5352 80.291 42.6992 79.1973 42.6719C77.7754 42.5352 76.3535 42.207 74.9316 41.6875C73.5098 41.168 72.252 40.375 71.1582 39.3086C70.0645 38.2148 69.2168 36.8066 68.6152 35.084C68.041 33.3613 67.8633 31.2285 68.082 28.6855C68.3281 26.1426 68.9297 23.9277 69.8867 22.041C70.8711 20.127 72.0879 18.541 73.5371 17.2832C74.9863 16.0254 76.6133 15.082 78.418 14.4531C80.25 13.7969 82.123 13.4414 84.0371 13.3867ZM104.607 36.3965C105.373 36.3965 106.084 36.3145 106.74 36.1504C107.287 36.0137 107.806 35.7949 108.299 35.4941C108.818 35.166 109.16 34.6875 109.324 34.0586C109.871 34.168 110.336 34.2637 110.719 34.3457C111.101 34.4004 111.43 34.4551 111.703 34.5098C112.004 34.5918 112.264 34.6465 112.482 34.6738C112.701 34.7285 112.961 34.7832 113.262 34.8379C113.535 34.8926 113.863 34.9609 114.246 35.043C114.656 35.0977 115.135 35.1797 115.681 35.2891C115.271 35.2344 114.847 35.2754 114.41 35.4121C114 35.5488 113.603 35.6992 113.221 35.8633C112.783 36.0547 112.373 36.2871 111.99 36.5605C111.744 36.7246 111.457 36.9707 111.129 37.2988C110.828 37.627 110.39 37.9414 109.816 38.2422C109.242 38.543 108.476 38.8027 107.519 39.0215C106.59 39.2129 105.387 39.2812 103.91 39.2266C102.133 39.1719 100.642 38.8574 99.4393 38.2832C98.2362 37.6816 97.2655 36.957 96.5272 36.1094C95.7889 35.2344 95.2557 34.291 94.9276 33.2793C94.5995 32.2676 94.4217 31.3242 94.3944 30.4492C94.367 29.5742 94.6268 28.6582 95.1737 27.7012C95.7205 26.7441 96.4862 25.8691 97.4705 25.0762C98.4823 24.2832 99.6991 23.6406 101.121 23.1484C102.543 22.6289 104.101 22.3691 105.797 22.3691C106.781 22.3691 107.683 22.4922 108.504 22.7383C109.351 22.957 110.117 23.2578 110.801 23.6406C111.512 24.0234 112.127 24.4609 112.646 24.9531C113.166 25.418 113.603 25.8965 113.959 26.3887C114.314 26.9082 114.615 27.4551 114.861 28.0293C115.08 28.5215 115.258 29.082 115.394 29.7109C115.531 30.3398 115.572 30.9824 115.517 31.6387C113.439 31.6934 111.758 31.7344 110.472 31.7617C109.215 31.7891 108.23 31.8027 107.519 31.8027H105.674H104.279C103.787 31.8027 103.144 31.8164 102.351 31.8438C101.558 31.8711 100.588 31.9121 99.4393 31.9668C99.576 33.0605 99.9178 33.9082 100.465 34.5098C101.039 35.084 101.64 35.5215 102.269 35.8223C102.98 36.1504 103.76 36.3418 104.607 36.3965ZM100.916 29.0137C101.791 29.0684 102.515 29.1094 103.09 29.1367C103.691 29.1641 104.183 29.1914 104.566 29.2188C104.976 29.2461 105.305 29.2598 105.551 29.2598H106.576C107.26 29.2598 108.531 29.2188 110.39 29.1367C110.308 27.9336 110.049 27.0176 109.611 26.3887C109.201 25.7598 108.764 25.2949 108.299 24.9941C107.752 24.666 107.15 24.4746 106.494 24.4199C104.717 24.4473 103.39 24.8164 102.515 25.5273C101.668 26.2383 101.135 27.4004 100.916 29.0137ZM115.826 17.1602C116.646 17.2422 117.33 17.3105 117.877 17.3652C118.451 17.4199 118.916 17.4609 119.271 17.4883C119.681 17.5156 120.009 17.5293 120.256 17.5293C120.502 17.5566 120.83 17.5566 121.24 17.5293C121.595 17.502 122.06 17.4746 122.634 17.4473C123.209 17.3926 123.933 17.3105 124.808 17.2012C124.617 17.4746 124.466 17.7207 124.357 17.9395C124.248 18.1309 124.152 18.3086 124.07 18.4727L123.824 18.9648C123.769 19.1289 123.715 19.293 123.66 19.457C123.605 19.5938 123.55 19.7578 123.496 19.9492C123.468 20.1406 123.441 20.3457 123.414 20.5645H129.73L129.156 23.8867L123.373 23.5586C123.236 24.9531 123.14 26.0332 123.086 26.7988C123.031 27.5645 122.976 28.125 122.922 28.4805L122.84 29.2188C122.757 30.2578 122.675 31.3926 122.593 32.623C122.511 33.8262 122.484 34.9473 122.511 35.9863C122.539 37.0254 122.634 37.9004 122.799 38.6113C122.963 39.2949 123.25 39.6367 123.66 39.6367C124.07 39.6367 124.453 39.5273 124.808 39.3086C125.164 39.0898 125.465 38.8301 125.711 38.5293C125.984 38.2285 126.189 37.9277 126.326 37.627C126.463 37.2988 126.531 37.0527 126.531 36.8887C126.531 36.7246 126.49 36.5332 126.408 36.3145C126.271 35.9043 126.025 35.3848 125.67 34.7559C126.463 34.9473 127.16 35.1387 127.761 35.3301C128.062 35.4395 128.336 35.5488 128.582 35.6582C128.855 35.7676 129.17 35.8906 129.525 36.0273C129.826 36.1641 130.209 36.3281 130.674 36.5195C131.138 36.7109 131.685 36.9434 132.314 37.2168C131.713 37.3262 131.275 37.5039 131.002 37.75C130.838 37.8594 130.715 37.9824 130.632 38.1191C130.441 38.4199 130.222 38.8301 129.976 39.3496C129.73 39.8418 129.361 40.334 128.869 40.8262C128.377 41.3184 127.707 41.7559 126.859 42.1387C126.039 42.5215 124.931 42.7402 123.537 42.7949C122.088 42.8496 120.98 42.6035 120.215 42.0566C119.476 41.5098 118.929 40.8809 118.574 40.1699C118.246 39.4316 118.054 38.707 118 37.9961C117.945 37.2852 117.904 36.8066 117.877 36.5605C117.849 36.3145 117.849 35.6992 117.877 34.7148C117.904 33.7305 117.945 32.6504 118 31.4746C118.054 30.2715 118.109 29.123 118.164 28.0293C118.218 26.9082 118.246 26.0879 118.246 25.5684C118.246 25.2949 118.259 25.0078 118.287 24.707C118.287 24.4609 118.287 24.2012 118.287 23.9277C118.314 23.627 118.328 23.3398 118.328 23.0664L112.381 23.0254L112.134 20.6875L118.123 20.8516C118.068 20.5508 118 20.2773 117.918 20.0312C117.863 19.7578 117.808 19.5391 117.754 19.375C117.672 19.1836 117.59 19.0195 117.507 18.8828C117.398 18.7461 117.275 18.5957 117.138 18.4316C117.002 18.2949 116.824 18.1172 116.605 17.8984C116.386 17.6797 116.127 17.4336 115.826 17.1602ZM140.929 13.7559C141.886 13.8926 142.72 14.002 143.431 14.084C144.142 14.166 144.73 14.2344 145.195 14.2891C145.742 14.3438 146.206 14.3848 146.589 14.4121C147.027 14.4668 147.56 14.4395 148.189 14.3301C148.845 14.2207 149.542 14.1113 150.281 14.002C151.019 13.8652 151.785 13.7559 152.577 13.6738C153.37 13.5918 154.136 13.5918 154.874 13.6738C155.367 13.7285 155.995 13.8379 156.761 14.002C157.527 14.166 158.333 14.4258 159.181 14.7812C160.056 15.1367 160.931 15.6016 161.806 16.1758C162.681 16.75 163.474 17.4746 164.185 18.3496C164.896 19.2246 165.484 20.2637 165.949 21.4668C166.413 22.6699 166.673 24.0781 166.728 25.6914C166.81 28.0977 166.591 30.2852 166.072 32.2539C165.552 34.2227 164.745 35.9043 163.652 37.2988C162.585 38.6934 161.232 39.7871 159.591 40.5801C157.951 41.373 156.036 41.8105 153.849 41.8926C152.181 42.0293 150.54 42.1523 148.927 42.2617C148.244 42.3164 147.519 42.3574 146.753 42.3848C146.015 42.4121 145.277 42.4395 144.538 42.4668C143.8 42.4668 143.089 42.4531 142.406 42.4258C141.722 42.3984 141.093 42.3574 140.519 42.3027C141.148 42.002 141.654 41.7012 142.036 41.4004C142.447 41.0996 142.761 40.8398 142.98 40.6211C143.226 40.3477 143.404 40.1016 143.513 39.8828C143.568 39.582 143.65 38.9941 143.759 38.1191C143.841 37.3809 143.951 36.3281 144.087 34.9609C144.224 33.5938 144.388 31.7344 144.579 29.3828L144.826 26.4707C144.962 24.666 145.017 23.1895 144.99 22.041C144.99 20.8926 144.962 19.9902 144.908 19.334C144.826 18.5684 144.716 18.0078 144.579 17.6523C144.47 17.3516 144.265 16.9961 143.964 16.5859C143.691 16.2578 143.308 15.8613 142.816 15.3965C142.351 14.9043 141.722 14.3574 140.929 13.7559ZM149.583 28.8496C149.638 31.2832 149.761 33.1562 149.952 34.4688C150.171 35.7539 150.404 36.7109 150.65 37.3398C150.951 38.0508 151.279 38.4746 151.634 38.6113C152.154 38.6113 152.742 38.3926 153.398 37.9551C154.054 37.4902 154.697 36.793 155.326 35.8633C155.982 34.9336 156.57 33.7715 157.089 32.377C157.636 30.9824 158.033 29.3555 158.279 27.4961C158.525 25.6367 158.456 23.9961 158.074 22.5742C157.691 21.1523 157.185 19.9629 156.556 19.0059C155.927 18.0215 155.285 17.2832 154.628 16.791C153.972 16.2715 153.48 16.0117 153.152 16.0117C152.769 16.0117 152.427 16.1211 152.126 16.3398C151.826 16.5312 151.402 16.9824 150.855 17.6934C150.581 18.0762 150.335 18.623 150.117 19.334C149.925 19.9629 149.761 20.7969 149.624 21.8359C149.488 22.875 149.447 24.2148 149.501 25.8555L149.583 28.8496ZM178.439 36.3965C179.204 36.3965 179.915 36.3145 180.571 36.1504C181.118 36.0137 181.638 35.7949 182.13 35.4941C182.65 35.166 182.991 34.6875 183.155 34.0586C183.702 34.168 184.167 34.2637 184.55 34.3457C184.933 34.4004 185.261 34.4551 185.534 34.5098C185.835 34.5918 186.095 34.6465 186.314 34.6738C186.532 34.7285 186.792 34.7832 187.093 34.8379C187.366 34.8926 187.695 34.9609 188.077 35.043C188.488 35.0977 188.966 35.1797 189.513 35.2891C189.103 35.2344 188.679 35.2754 188.241 35.4121C187.831 35.5488 187.435 35.6992 187.052 35.8633C186.614 36.0547 186.204 36.2871 185.821 36.5605C185.575 36.7246 185.288 36.9707 184.96 37.2988C184.659 37.627 184.222 37.9414 183.648 38.2422C183.073 38.543 182.308 38.8027 181.351 39.0215C180.421 39.2129 179.218 39.2812 177.741 39.2266C175.964 39.1719 174.474 38.8574 173.271 38.2832C172.068 37.6816 171.097 36.957 170.359 36.1094C169.62 35.2344 169.087 34.291 168.759 33.2793C168.431 32.2676 168.253 31.3242 168.226 30.4492C168.198 29.5742 168.458 28.6582 169.005 27.7012C169.552 26.7441 170.318 25.8691 171.302 25.0762C172.314 24.2832 173.53 23.6406 174.952 23.1484C176.374 22.6289 177.933 22.3691 179.628 22.3691C180.613 22.3691 181.515 22.4922 182.335 22.7383C183.183 22.957 183.948 23.2578 184.632 23.6406C185.343 24.0234 185.958 24.4609 186.478 24.9531C186.997 25.418 187.435 25.8965 187.79 26.3887C188.146 26.9082 188.446 27.4551 188.693 28.0293C188.911 28.5215 189.089 29.082 189.226 29.7109C189.363 30.3398 189.404 30.9824 189.349 31.6387C187.271 31.6934 185.589 31.7344 184.304 31.7617C183.046 31.7891 182.062 31.8027 181.351 31.8027H179.505H178.111C177.618 31.8027 176.976 31.8164 176.183 31.8438C175.39 31.8711 174.419 31.9121 173.271 31.9668C173.407 33.0605 173.749 33.9082 174.296 34.5098C174.87 35.084 175.472 35.5215 176.101 35.8223C176.812 36.1504 177.591 36.3418 178.439 36.3965ZM174.747 29.0137C175.622 29.0684 176.347 29.1094 176.921 29.1367C177.523 29.1641 178.015 29.1914 178.398 29.2188C178.808 29.2461 179.136 29.2598 179.382 29.2598H180.407C181.091 29.2598 182.363 29.2188 184.222 29.1367C184.14 27.9336 183.88 27.0176 183.443 26.3887C183.032 25.7598 182.595 25.2949 182.13 24.9941C181.583 24.666 180.982 24.4746 180.325 24.4199C178.548 24.4473 177.222 24.8164 176.347 25.5273C175.499 26.2383 174.966 27.4004 174.747 29.0137ZM201.327 13.0586C203.159 13.2773 204.745 13.4414 206.085 13.5508C207.425 13.6328 208.532 13.7012 209.407 13.7559C210.419 13.8105 211.266 13.8242 211.95 13.7969C212.661 13.7695 213.632 13.7012 214.862 13.5918C215.901 13.5098 217.268 13.4004 218.964 13.2637C220.659 13.0996 222.778 12.8809 225.321 12.6074C225.349 13.2363 225.362 13.8516 225.362 14.4531C225.39 15.0273 225.417 15.5332 225.444 15.9707C225.472 16.4902 225.485 16.9688 225.485 17.4062C225.485 17.8711 225.458 18.459 225.403 19.1699C225.349 19.7715 225.253 20.5371 225.116 21.4668C225.007 22.3691 224.829 23.4492 224.583 24.707C224.2 23.2305 223.831 22.041 223.475 21.1387C223.12 20.209 222.792 19.4707 222.491 18.9238C222.163 18.2949 221.835 17.8164 221.507 17.4883C221.151 17.2422 220.727 17.0371 220.235 16.873C219.798 16.7363 219.237 16.627 218.554 16.5449C217.897 16.4629 217.118 16.4766 216.216 16.5859C216.079 20.1953 215.983 23.1211 215.929 25.3633C215.874 27.6055 215.833 29.3555 215.806 30.6133C215.778 32.1172 215.765 33.1973 215.765 33.8535C215.792 34.7832 215.942 35.6992 216.216 36.6016C216.434 37.3672 216.79 38.1602 217.282 38.9805C217.774 39.8008 218.485 40.5254 219.415 41.1543H214.411C213.946 41.1543 213.372 41.1816 212.688 41.2363C212.114 41.291 211.376 41.3457 210.474 41.4004C209.599 41.4551 208.573 41.5508 207.397 41.6875C207.807 40.9766 208.136 40.334 208.382 39.7598C208.628 39.1855 208.819 38.6934 208.956 38.2832C209.12 37.791 209.243 37.3535 209.325 36.9707C209.352 36.4238 209.421 35.3164 209.53 33.6484C209.557 32.9648 209.585 32.1172 209.612 31.1055C209.667 30.0938 209.722 28.8906 209.776 27.4961C209.858 26.1016 209.927 24.502 209.981 22.6973C210.063 20.8652 210.145 18.8008 210.227 16.5039C209.735 16.3672 209.27 16.3809 208.833 16.5449C208.395 16.6816 208.013 16.8594 207.684 17.0781C207.302 17.3516 206.932 17.6797 206.577 18.0625C206.222 18.5273 205.825 19.1289 205.388 19.8672C205.005 20.4961 204.567 21.3301 204.075 22.3691C203.583 23.3809 203.022 24.6387 202.393 26.1426C202.257 24.5566 202.161 23.2578 202.106 22.2461C202.052 21.207 202.011 20.4004 201.983 19.8262C201.956 19.1426 201.942 18.6367 201.942 18.3086C201.942 18.0078 201.915 17.6113 201.86 17.1191C201.806 16.709 201.737 16.1758 201.655 15.5195C201.573 14.8359 201.464 14.0156 201.327 13.0586ZM222.8 23.3535C223.319 23.3809 223.784 23.3945 224.194 23.3945C224.632 23.3672 225.001 23.3398 225.301 23.3125C225.657 23.2852 225.971 23.2578 226.245 23.2305C226.655 23.1758 227.079 23.1074 227.516 23.0254C227.899 22.9707 228.296 22.9023 228.706 22.8203C229.143 22.7109 229.567 22.5879 229.977 22.4512C229.813 22.8613 229.676 23.2168 229.567 23.5176C229.458 23.8184 229.376 24.0781 229.321 24.2969C229.239 24.543 229.198 24.748 229.198 24.9121C229.171 25.1035 229.157 25.3359 229.157 25.6094C229.13 26.0742 229.13 26.8262 229.157 27.8652C230.579 26.6348 231.768 25.6777 232.725 24.9941C233.71 24.3105 234.489 23.7773 235.063 23.3945C235.747 22.957 236.28 22.6699 236.663 22.5332C237.675 22.3691 238.563 22.6016 239.329 23.2305C239.657 23.5039 239.971 23.873 240.272 24.3379C240.573 24.7754 240.833 25.3633 241.051 26.1016C241.27 26.8398 241.434 27.7285 241.544 28.7676C241.653 29.7793 241.667 30.9961 241.585 32.418C241.01 32.4727 240.491 32.5273 240.026 32.582C239.589 32.6367 239.219 32.6777 238.919 32.7051C238.563 32.7598 238.235 32.7871 237.934 32.7871L236.827 32.9102C236.444 32.9648 235.966 33.0195 235.391 33.0742C234.844 33.1016 234.175 33.1562 233.382 33.2383C234.53 32.3086 235.268 31.502 235.596 30.8184C235.952 30.1074 236.102 29.5195 236.048 29.0547C235.993 28.5352 235.747 28.084 235.309 27.7012C234.79 27.4004 234.229 27.291 233.628 27.373C233.108 27.4277 232.507 27.6602 231.823 28.0703C231.139 28.4805 230.415 29.2461 229.649 30.3672C229.704 32.1172 229.759 33.5664 229.813 34.7148C229.895 35.8633 229.964 36.793 230.018 37.5039C230.1 38.3242 230.169 38.9668 230.223 39.4316C230.305 39.8418 230.469 40.2793 230.716 40.7441C230.907 41.127 231.18 41.5508 231.536 42.0156C231.891 42.4805 232.356 42.9453 232.93 43.4102C231.727 43.3555 230.743 43.3555 229.977 43.4102C229.512 43.4375 229.102 43.4648 228.747 43.4922C228.364 43.5469 227.954 43.6016 227.516 43.6562C227.134 43.7109 226.682 43.7656 226.163 43.8203C225.671 43.9023 225.124 43.9844 224.522 44.0664C224.741 43.7656 224.919 43.4102 225.055 43C225.192 42.6172 225.301 42.248 225.384 41.8926C225.493 41.4824 225.575 41.0586 225.63 40.6211C225.657 40.2383 225.671 39.6641 225.671 38.8984C225.698 38.1328 225.684 37.2715 225.63 36.3145C225.602 35.3301 225.561 34.3184 225.507 33.2793C225.452 32.2129 225.384 31.2148 225.301 30.2852C225.219 29.3555 225.124 28.5488 225.014 27.8652C224.932 27.1543 224.837 26.6621 224.727 26.3887C224.591 26.0605 224.426 25.7324 224.235 25.4043C224.071 25.1035 223.866 24.7891 223.62 24.4609C223.374 24.1055 223.1 23.7363 222.8 23.3535ZM242.467 24.666L250.014 24.748C249.577 26.416 249.249 27.8379 249.03 29.0137C248.838 30.1895 248.715 31.1738 248.661 31.9668C248.551 32.8691 248.524 33.6348 248.579 34.2637C248.661 34.8379 248.797 35.4531 248.989 36.1094C249.153 36.6562 249.399 37.2852 249.727 37.9961C250.055 38.707 250.493 39.418 251.04 40.1289C250.711 40.0195 250.356 39.9375 249.973 39.8828C249.59 39.8281 249.235 39.7871 248.907 39.7598C248.524 39.7324 248.141 39.7324 247.758 39.7598C247.376 39.7871 246.952 39.8281 246.487 39.8828C246.104 39.9375 245.639 40.0059 245.092 40.0879C244.545 40.1699 243.971 40.2793 243.37 40.416C243.78 39.1855 244.094 38.1191 244.313 37.2168C244.559 36.3145 244.737 35.5625 244.846 34.9609C244.956 34.25 245.024 33.6758 245.051 33.2383C245.051 32.6914 245.051 32.0762 245.051 31.3926C245.051 30.6816 245.051 29.998 245.051 29.3418C245.051 28.6855 245.038 28.1113 245.01 27.6191C244.983 27.0996 244.928 26.7715 244.846 26.6348L244.436 26.2246C244.272 26.0879 244.026 25.8965 243.698 25.6504C243.397 25.377 242.987 25.0488 242.467 24.666ZM245.379 18.3496C245.954 18.0488 246.528 17.9668 247.102 18.1035C247.704 18.2402 248.169 18.5 248.497 18.8828C248.825 19.2656 248.934 19.7168 248.825 20.2363C248.743 20.7559 248.305 21.2617 247.512 21.7539C246.719 22.2188 246.022 22.3828 245.42 22.2461C244.819 22.1094 244.395 21.8223 244.149 21.3848C243.903 20.9473 243.862 20.4414 244.026 19.8672C244.19 19.2656 244.641 18.7598 245.379 18.3496ZM250.446 23.8867C251.321 23.75 252.032 23.6406 252.579 23.5586C253.153 23.4492 253.618 23.3672 253.973 23.3125C254.383 23.2305 254.698 23.1621 254.916 23.1074C255.135 23.0527 255.45 22.9707 255.86 22.8613C256.215 22.752 256.68 22.6289 257.254 22.4922C257.829 22.3281 258.553 22.1094 259.428 21.8359C259.209 22.1094 259.032 22.3555 258.895 22.5742C258.786 22.7656 258.676 22.9297 258.567 23.0664C258.457 23.2305 258.362 23.3809 258.28 23.5176C258.198 23.6543 258.116 23.8594 258.034 24.1328C257.979 24.3516 257.911 24.666 257.829 25.0762C257.746 25.459 257.678 25.9648 257.623 26.5938C259.1 25.6641 260.454 24.9668 261.684 24.502C262.942 24.0371 264.036 23.709 264.965 23.5176C266.059 23.2988 267.043 23.2168 267.918 23.2715C269.012 23.3535 270.024 23.5996 270.954 24.0098C271.911 24.3926 272.772 24.8574 273.538 25.4043C274.303 25.9512 274.973 26.5527 275.547 27.209C276.121 27.8652 276.573 28.5215 276.901 29.1777C277.12 29.6152 277.256 30.2441 277.311 31.0645C277.393 31.8848 277.311 32.7598 277.065 33.6895C276.819 34.6191 276.381 35.5352 275.752 36.4375C275.151 37.3125 274.289 38.0098 273.168 38.5293C271.227 39.4043 269.299 39.8965 267.385 40.0059C266.565 40.0605 265.717 40.0332 264.842 39.9238C263.995 39.8145 263.133 39.582 262.258 39.2266C261.411 38.8711 260.59 38.3652 259.797 37.709C259.004 37.0254 258.28 36.1504 257.623 35.084C257.405 36.4785 257.241 37.6953 257.131 38.7344C257.049 39.7461 256.995 40.5938 256.967 41.2773C256.94 42.0703 256.94 42.7402 256.967 43.2871C257.022 43.834 257.131 44.4219 257.295 45.0508C257.432 45.5977 257.623 46.2266 257.87 46.9375C258.143 47.6758 258.485 48.4414 258.895 49.2344C258.731 49.1797 258.498 49.1387 258.198 49.1113C257.924 49.1113 257.637 49.1387 257.336 49.1934C257.008 49.248 256.639 49.3027 256.229 49.3574C255.846 49.4395 255.422 49.5352 254.957 49.6445C254.575 49.7266 254.123 49.8223 253.604 49.9316C253.112 50.0684 252.606 50.2188 252.086 50.3828C252.387 50.0273 252.62 49.6172 252.784 49.1523C252.975 48.7148 253.125 48.3047 253.235 47.9219C253.344 47.457 253.44 46.9922 253.522 46.5273C253.549 46.1172 253.59 45.3379 253.645 44.1895C253.727 43.0684 253.795 41.7695 253.85 40.293C253.905 38.7891 253.946 37.2168 253.973 35.5762C254.028 33.9355 254.055 32.418 254.055 31.0234C254.082 29.6016 254.082 28.3984 254.055 27.4141C254.028 26.4297 253.973 25.8555 253.891 25.6914C253.782 25.5 253.577 25.2949 253.276 25.0762C253.03 24.8848 252.674 24.6934 252.209 24.502C251.772 24.3105 251.184 24.1055 250.446 23.8867ZM260.207 31.3516C260.016 31.9805 259.975 32.5957 260.084 33.1973C260.194 33.7988 260.467 34.3594 260.905 34.8789C261.37 35.3984 262.012 35.8633 262.832 36.2734C263.68 36.6562 264.733 36.9434 265.991 37.1348C267.248 37.3262 268.205 37.2988 268.862 37.0527C269.518 36.8066 269.996 36.4238 270.297 35.9043C270.625 35.3574 270.844 34.7285 270.954 34.0176C271.063 33.2793 271.2 32.5137 271.364 31.7207C271.528 30.9551 271.5 30.1758 271.282 29.3828C271.063 28.5625 270.748 27.8242 270.338 27.168C269.955 26.5117 269.518 25.9785 269.026 25.5684C268.561 25.1309 268.151 24.9121 267.795 24.9121C266.948 24.9121 266.114 25.1309 265.293 25.5684C264.473 26.0059 263.721 26.5527 263.038 27.209C262.354 27.8652 261.752 28.5762 261.233 29.3418C260.741 30.0801 260.399 30.75 260.207 31.3516Z" fill="white"/>
<g clip-path="url(#clip0_20_16)">
<path d="M6.95733 15.4039C7.44533 14.7992 8.088 13.9805 8.60266 13.3955C10.144 11.7828 10.344 11.5714 11.7467 10.3791C12.1627 10.0644 12.656 9.68583 13.1387 9.32937C9.57867 12.1073 9.12533 15.1827 12.392 17.083C12.3867 17.083 12.3867 17.083 12.3867 17.0879C16.9547 19.6249 26.9653 19.0767 34.864 15.8267C42.5147 12.6801 45.3387 8.17887 41.5627 5.50421C38.248 4.93142 34.296 4.86504 30.1147 5.38129L29.68 4.72L30.04 3.62358C32.4987 3.41954 34.8347 3.46871 36.8507 3.78583C37.3387 3.86204 37.9813 3.99233 38.4613 4.08575C39.3893 4.29471 39.8933 4.42008 40.4987 4.59954C41.1173 4.76917 41.6453 4.93879 42.5653 5.25346C43.4667 5.58042 43.856 5.72792 44.5787 6.05979C45.388 6.40018 46.1743 6.7852 46.9333 7.21275C52.9493 10.7011 49.208 17.0657 38.592 21.4268C28.0053 25.7732 14.5147 26.4566 8.46933 23.01C8.46667 23.0051 8.45866 23.0002 8.44266 22.9952H8.45333C5.152 21.0679 4.80533 18.2703 6.95733 15.4039ZM34.5013 39.7906L34.416 35.872L31.3947 32.7745C21.4133 34.8592 11.6027 34.4117 6.14667 31.4495C6.128 31.4298 6.08266 31.4101 6.064 31.3905C2.976 29.6377 2.21333 27.376 2.44533 24.9177C1.72266 28.5142 1.664 29.8122 1.768 32.89C1.896 34.8174 3.104 36.5947 5.53333 37.996L5.552 38.0157C11.368 41.3492 23.4853 42.0719 34.5013 39.7906ZM47.1013 44.277C33.0133 49.4862 15.3813 49.7935 7.72266 44.9727C8.54975 46.8361 9.67514 48.5746 11.0613 50.1303C18.0907 54.5553 34.2747 54.2726 47.2 49.4912C54.7653 46.696 59.5387 42.9766 60.792 39.4907L61.144 38.441C61.9787 35.781 62.136 33.5661 62.2693 31.5945C62.1173 35.8745 56.648 40.742 47.1013 44.277ZM16.0027 54.3095C16.4453 54.6979 55.216 94.1345 62.2693 95.875C64.176 96.2634 31.5973 59.649 40.464 57.8372L40.5173 57.0923L39.816 56.0795C31.5893 57.8741 22.4507 57.2742 16.0027 54.3095ZM36.36 23.3124L43.8507 28.5462C43.8507 28.5462 45.4533 29.6106 43.9413 30.358C42.4347 31.0979 38.5653 32.9097 38.5653 32.9097L34.744 31.5945L32.8267 32.3812L36.208 35.0878L36.2347 39.2989L38.2213 38.4852L39.5387 34.928C39.5387 34.928 43.584 33.4923 45.1893 32.9515C46.8027 32.423 46.5867 34.2323 46.5867 34.2323L45.792 42.8635L48.432 41.7818L52.7787 30.1367C52.7787 30.1367 55.0827 29.1042 56.704 28.1971C58.3227 27.29 58.8773 25.7855 58.8773 25.7855C58.8773 25.7855 57.2987 25.1586 55.48 25.6625C53.6613 26.1616 51.2907 27.0515 51.2907 27.0515L38.992 22.2356L36.36 23.3124ZM20.512 6.75304L25.5973 10.4872L26.9867 10.2955L24.2187 6.94479C24.2187 6.94479 23.616 6.25154 24.4267 6.08683C25.2427 5.91967 27.3067 5.53125 27.3067 5.53125L28.8587 6.67437L29.904 6.53179L28.72 4.79621L29.344 2.87133L28.3333 3.00654L27.136 4.47171C27.136 4.47171 25.0347 4.65362 24.208 4.71754C23.376 4.77654 23.7333 3.953 23.7333 3.953L25.328 0L23.9307 0.189292L20.2507 5.12808C20.2507 5.12808 19.024 5.33458 18.136 5.56812C17.2453 5.79921 16.776 6.43346 16.776 6.43346C16.776 6.43346 17.4293 6.92021 18.3493 6.903C19.2773 6.88579 20.512 6.75304 20.512 6.75304ZM45.6453 54.7348L42.3547 53.1492L41.5973 53.3925L43.5467 55.0003C43.5467 55.0003 43.9627 55.3272 43.5253 55.5018C43.088 55.6739 41.9733 56.0967 41.9733 56.0967L41.0533 55.7181L40.5067 55.9L41.272 56.6523L41.1973 57.7512L41.768 57.5692L42.1947 56.6769C42.1947 56.6769 43.352 56.3597 43.8133 56.2467C44.272 56.1311 44.168 56.6277 44.168 56.6277L43.7333 59L44.4933 58.7566L45.984 55.6198C45.984 55.6198 46.6427 55.3813 47.1147 55.1625C47.5867 54.9437 47.7733 54.5406 47.7733 54.5406C47.7733 54.5406 47.3547 54.3292 46.8373 54.4349C46.3173 54.5357 45.6453 54.7348 45.6453 54.7348Z" fill="white"/>
</g>
<defs>
<clipPath id="clip0_20_16">
<rect width="64" height="59" fill="white"/>
</clipPath>
</defs>
</svg>
